<svg width="48" height="48" viewBox="0 0 48 48" fill="none" xmlns="http://www.w3.org/2000/svg">
<path fill-rule="evenodd" clip-rule="evenodd" d="M15.9314 13.2363C16.5482 8.59147 19.7832 4.80005 24 4.80005H24.9V5.70005C24.9 8.66403 25.103 10.3083 25.3286 11.1541C29.0973 7.88615 34.4376 7.28476 37.5764 10.4236L38.099 10.9462L34.7637 15.9315C39.4086 16.5483 43.2 19.7832 43.2 24V24.7391L37.3165 25.9058C40.1647 29.6264 40.5582 34.5948 37.5764 37.5765L37.0539 38.0991L32.0686 34.7638C31.4518 39.4086 28.2168 43.2001 24 43.2001H23.2609L22.0942 37.3165C18.3737 40.1648 13.4053 40.5582 10.4235 37.5765L9.90095 37.0539L13.2362 32.0686C8.5914 31.4518 4.79999 28.2169 4.79999 24V23.261L10.6835 22.0943C7.83526 18.3737 7.4418 13.4053 10.4235 10.4236L10.9461 9.90101L15.9314 13.2363ZM15.8346 15.3372L11.2206 12.2504C9.39854 14.7272 9.9031 18.9188 13.0222 22.0378C15.6908 24.7065 19.1447 25.4612 21.6379 24.4823C18.3112 23.2654 16.0011 19.5427 15.8346 15.3372ZM24.4822 26.3622C23.2653 29.6889 19.5426 31.9989 15.3372 32.1654L12.2503 36.7794C14.7271 38.6015 18.9187 38.0969 22.0378 34.9779C24.7064 32.3092 25.4612 28.8553 24.4822 26.3622ZM26.3621 23.5178C29.6888 24.7347 31.9988 28.4574 32.1654 32.6629L36.7793 35.7497C38.6014 33.2729 38.0969 29.0813 34.9778 25.9623C32.3091 23.2936 28.8553 22.5389 26.3621 23.5178ZM23.5178 21.6379C24.7346 18.3112 28.4574 16.0012 32.6628 15.8347L35.7497 11.2207C33.2729 9.3986 29.0813 9.90316 25.9622 13.0222C23.2935 15.6909 22.5388 19.1448 23.5178 21.6379Z" fill="#5C53E9"/>
</svg>
