<svg width="157" height="56" viewBox="0 0 157 56" fill="none" xmlns="http://www.w3.org/2000/svg">
<path d="M15.0983 28V9.58C14.7783 9.5 14.4583 9.44 14.1383 9.4C13.8183 9.36 13.4583 9.34 13.0583 9.34L9.00832 10.27L8.82832 8.14H24.2783L24.1283 10.27L20.0483 9.34C19.6483 9.34 19.2883 9.36 18.9683 9.4C18.6483 9.44 18.3283 9.5 18.0083 9.58V28H15.0983ZM26.503 28V14.44H28.243L28.933 16.96C29.193 16.52 29.553 16.08 30.013 15.64C30.493 15.2 31.033 14.82 31.633 14.5C32.253 14.16 32.883 13.94 33.523 13.84L33.823 15.91C33.303 15.91 32.743 16.02 32.143 16.24C31.543 16.46 30.963 16.74 30.403 17.08C29.863 17.42 29.403 17.77 29.023 18.13V28H26.503ZM45.1438 28.39L42.7138 26.2C41.9938 26.86 41.2838 27.39 40.5838 27.79C39.9038 28.17 39.1538 28.36 38.3338 28.36C37.5138 28.36 36.7738 28.09 36.1138 27.55C35.4538 27.01 35.1238 26.24 35.1238 25.24C35.1238 24.46 35.3838 23.81 35.9038 23.29C36.4238 22.75 37.0838 22.32 37.8838 22C38.6838 21.68 39.5138 21.44 40.3738 21.28C41.2338 21.12 42.0038 21.02 42.6838 20.98V18.16C42.6838 16.5 41.7238 15.67 39.8038 15.67C39.3038 15.67 38.7238 15.73 38.0638 15.85C37.4238 15.95 36.7038 16.13 35.9038 16.39L35.6338 15.64C35.8538 15.46 36.2238 15.25 36.7438 15.01C37.2638 14.77 37.8638 14.56 38.5438 14.38C39.2238 14.18 39.9138 14.08 40.6138 14.08C41.7538 14.08 42.6338 14.25 43.2538 14.59C43.8738 14.91 44.3138 15.33 44.5738 15.85C44.8338 16.35 44.9938 16.88 45.0538 17.44C45.1138 17.98 45.1438 18.47 45.1438 18.91V24.01C45.1438 24.69 45.2338 25.25 45.4138 25.69C45.6138 26.13 45.8338 26.47 46.0738 26.71C46.3338 26.95 46.5438 27.13 46.7038 27.25L45.1438 28.39ZM39.4738 26.98C39.9538 26.88 40.4338 26.69 40.9138 26.41C41.4138 26.11 41.8338 25.81 42.1738 25.51C42.5138 25.19 42.6838 24.96 42.6838 24.82V21.73C41.1838 21.83 39.9838 22.16 39.0838 22.72C38.2038 23.26 37.7638 23.84 37.7638 24.46C37.7638 25.08 37.9238 25.62 38.2438 26.08C38.5838 26.52 38.9938 26.82 39.4738 26.98ZM60.1839 28.39L57.7239 26.2C56.9839 26.88 56.2839 27.41 55.6239 27.79C54.9839 28.17 54.2239 28.36 53.3439 28.36C52.9039 28.36 52.3939 28.26 51.8139 28.06C51.2339 27.88 50.6739 27.54 50.1339 27.04C49.5939 26.54 49.1439 25.82 48.7839 24.88C48.4239 23.92 48.2439 22.69 48.2439 21.19C48.2439 20.41 48.3539 19.61 48.5739 18.79C48.7939 17.95 49.1239 17.18 49.5639 16.48C50.0039 15.76 50.5539 15.19 51.2139 14.77C51.8939 14.33 52.6839 14.11 53.5839 14.11C54.1639 14.11 54.7939 14.22 55.4739 14.44C56.1539 14.66 56.8739 15.01 57.6339 15.49V7.51H60.1839V23.98C60.1839 24.66 60.2739 25.22 60.4539 25.66C60.6539 26.1 60.8739 26.45 61.1139 26.71C61.3539 26.95 61.5539 27.14 61.7139 27.28L60.1839 28.39ZM53.5539 27.01C54.3339 26.95 55.0239 26.78 55.6239 26.5C56.2439 26.22 56.7339 25.93 57.0939 25.63C57.4539 25.33 57.6339 25.11 57.6339 24.97V16.6C57.0939 16.24 56.5739 15.98 56.0739 15.82C55.5939 15.64 55.1439 15.55 54.7239 15.55C53.9239 15.55 53.2339 15.81 52.6539 16.33C52.0939 16.83 51.6539 17.52 51.3339 18.4C51.0339 19.26 50.8839 20.23 50.8839 21.31C50.8839 23.01 51.1539 24.34 51.6939 25.3C52.2339 26.26 52.8539 26.83 53.5539 27.01ZM69.7539 28.36C68.5139 28.36 67.3939 28.1 66.3939 27.58C65.4139 27.06 64.6439 26.3 64.0839 25.3C63.5239 24.3 63.2439 23.08 63.2439 21.64C63.2439 19.98 63.5639 18.59 64.2039 17.47C64.8439 16.35 65.6839 15.51 66.7239 14.95C67.7639 14.37 68.8739 14.08 70.0539 14.08C70.9939 14.08 71.8439 14.33 72.6039 14.83C73.3839 15.31 74.0039 16.04 74.4639 17.02C74.9439 17.98 75.1839 19.18 75.1839 20.62H65.6139C65.6139 22.18 65.8539 23.41 66.3339 24.31C66.8339 25.19 67.4739 25.81 68.2539 26.17C69.0539 26.53 69.8839 26.71 70.7439 26.71C71.5239 26.71 72.2139 26.63 72.8139 26.47C73.4139 26.31 73.9639 26.12 74.4639 25.9V26.95C73.8439 27.31 73.1339 27.64 72.3339 27.94C71.5339 28.22 70.6739 28.36 69.7539 28.36ZM65.7339 19.72H72.7539C72.6939 18.82 72.4939 18.09 72.1539 17.53C71.8339 16.97 71.4439 16.55 70.9839 16.27C70.5439 15.97 70.0939 15.77 69.6339 15.67C69.1939 15.55 68.8239 15.49 68.5239 15.49C67.8439 15.81 67.2439 16.35 66.7239 17.11C66.2239 17.85 65.8939 18.72 65.7339 19.72ZM78.4464 28V14.44H80.1864L80.8764 16.96C81.1364 16.52 81.4964 16.08 81.9564 15.64C82.4364 15.2 82.9764 14.82 83.5764 14.5C84.1964 14.16 84.8264 13.94 85.4664 13.84L85.7664 15.91C85.2464 15.91 84.6864 16.02 84.0864 16.24C83.4864 16.46 82.9064 16.74 82.3464 17.08C81.8064 17.42 81.3464 17.77 80.9664 18.13V28H78.4464Z" fill="white"/>
<path d="M86.9771 28L94.4771 18.37L87.3371 8.14H91.0871L96.0671 16.39L102.307 8.14H104.137L96.7271 17.32L104.557 28H100.807L95.1671 19.24L88.8071 28H86.9771Z" fill="#8677FF"/>
<path d="M99.2946 44.18C98.5746 44.18 97.8846 44.085 97.2246 43.895C96.5646 43.695 95.9746 43.395 95.4546 42.995C94.9446 42.585 94.5396 42.075 94.2396 41.465C93.9396 40.855 93.7896 40.135 93.7896 39.305C93.7896 38.345 93.9596 37.525 94.2996 36.845C94.6496 36.155 95.1096 35.595 95.6796 35.165C96.2496 34.725 96.8746 34.405 97.5546 34.205C98.2346 33.995 98.9046 33.89 99.5646 33.89C99.8746 33.89 100.2 33.915 100.54 33.965C100.88 34.015 101.195 34.075 101.485 34.145C101.775 34.215 102 34.28 102.16 34.34L102.01 35.36C101.47 35.13 100.935 34.93 100.405 34.76C99.8846 34.59 99.2996 34.505 98.6496 34.505C97.5896 34.745 96.7796 35.27 96.2196 36.08C95.6596 36.88 95.3796 37.875 95.3796 39.065C95.3796 40.065 95.5596 40.91 95.9196 41.6C96.2896 42.28 96.7896 42.795 97.4196 43.145C98.0496 43.485 98.7696 43.655 99.5796 43.655C100.11 43.655 100.635 43.59 101.155 43.46C101.675 43.32 102.09 43.115 102.4 42.845V43.67C102.1 43.79 101.765 43.89 101.395 43.97C101.025 44.04 100.655 44.09 100.285 44.12C99.9246 44.16 99.5946 44.18 99.2946 44.18ZM108.352 44.195L107.137 43.1C106.777 43.43 106.422 43.695 106.072 43.895C105.732 44.085 105.357 44.18 104.947 44.18C104.537 44.18 104.167 44.045 103.837 43.775C103.507 43.505 103.342 43.12 103.342 42.62C103.342 42.23 103.472 41.905 103.732 41.645C103.992 41.375 104.322 41.16 104.722 41C105.122 40.84 105.537 40.72 105.967 40.64C106.397 40.56 106.782 40.51 107.122 40.49V39.08C107.122 38.25 106.642 37.835 105.682 37.835C105.432 37.835 105.142 37.865 104.812 37.925C104.492 37.975 104.132 38.065 103.732 38.195L103.597 37.82C103.707 37.73 103.892 37.625 104.152 37.505C104.412 37.385 104.712 37.28 105.052 37.19C105.392 37.09 105.737 37.04 106.087 37.04C106.657 37.04 107.097 37.125 107.407 37.295C107.717 37.455 107.937 37.665 108.067 37.925C108.197 38.175 108.277 38.44 108.307 38.72C108.337 38.99 108.352 39.235 108.352 39.455V42.005C108.352 42.345 108.397 42.625 108.487 42.845C108.587 43.065 108.697 43.235 108.817 43.355C108.947 43.475 109.052 43.565 109.132 43.625L108.352 44.195ZM105.517 43.49C105.757 43.44 105.997 43.345 106.237 43.205C106.487 43.055 106.697 42.905 106.867 42.755C107.037 42.595 107.122 42.48 107.122 42.41V40.865C106.372 40.915 105.772 41.08 105.322 41.36C104.882 41.63 104.662 41.92 104.662 42.23C104.662 42.54 104.742 42.81 104.902 43.04C105.072 43.26 105.277 43.41 105.517 43.49ZM110.637 47.18V39.245C110.637 38.895 110.587 38.615 110.487 38.405C110.397 38.185 110.292 38.015 110.172 37.895C110.052 37.765 109.947 37.67 109.857 37.61L110.637 37.04L111.912 38.18C112.282 37.83 112.627 37.555 112.947 37.355C113.277 37.145 113.662 37.04 114.102 37.04C114.332 37.04 114.587 37.095 114.867 37.205C115.157 37.305 115.437 37.49 115.707 37.76C115.987 38.02 116.212 38.39 116.382 38.87C116.562 39.35 116.652 39.965 116.652 40.715C116.652 41.085 116.592 41.475 116.472 41.885C116.362 42.295 116.192 42.68 115.962 43.04C115.732 43.4 115.447 43.695 115.107 43.925C114.767 44.145 114.372 44.255 113.922 44.255C113.632 44.255 113.317 44.2 112.977 44.09C112.647 43.98 112.292 43.8 111.912 43.55V47.18H110.637ZM113.517 43.535C114.077 43.525 114.512 43.275 114.822 42.785C115.132 42.295 115.287 41.665 115.287 40.895C115.287 40.035 115.157 39.325 114.897 38.765C114.637 38.205 114.322 37.865 113.952 37.745C113.662 37.775 113.392 37.855 113.142 37.985C112.892 38.115 112.672 38.26 112.482 38.42C112.302 38.57 112.162 38.71 112.062 38.84C111.962 38.97 111.912 39.055 111.912 39.095V43.115C112.502 43.395 113.037 43.535 113.517 43.535ZM118.137 44V37.22H119.382V44H118.137ZM118.752 35.885C118.532 35.885 118.347 35.805 118.197 35.645C118.057 35.485 117.987 35.305 117.987 35.105C117.987 34.885 118.057 34.7 118.197 34.55C118.347 34.4 118.532 34.325 118.752 34.325C118.962 34.325 119.142 34.4 119.292 34.55C119.452 34.7 119.532 34.885 119.532 35.105C119.532 35.305 119.452 35.485 119.292 35.645C119.142 35.805 118.962 35.885 118.752 35.885ZM123.333 44.18C122.923 44.18 122.578 44.06 122.298 43.82C122.018 43.58 121.878 43.175 121.878 42.605V37.76L120.663 37.52V37.22H121.878V36.68L123.138 35.765V37.22H124.923V37.76H123.138V42.68C123.138 42.96 123.193 43.18 123.303 43.34C123.423 43.5 123.643 43.58 123.963 43.58C124.103 43.58 124.258 43.56 124.428 43.52C124.598 43.47 124.763 43.415 124.923 43.355V43.775C124.703 43.875 124.453 43.965 124.173 44.045C123.903 44.135 123.623 44.18 123.333 44.18ZM130.955 44.195L129.74 43.1C129.38 43.43 129.025 43.695 128.675 43.895C128.335 44.085 127.96 44.18 127.55 44.18C127.14 44.18 126.77 44.045 126.44 43.775C126.11 43.505 125.945 43.12 125.945 42.62C125.945 42.23 126.075 41.905 126.335 41.645C126.595 41.375 126.925 41.16 127.325 41C127.725 40.84 128.14 40.72 128.57 40.64C129 40.56 129.385 40.51 129.725 40.49V39.08C129.725 38.25 129.245 37.835 128.285 37.835C128.035 37.835 127.745 37.865 127.415 37.925C127.095 37.975 126.735 38.065 126.335 38.195L126.2 37.82C126.31 37.73 126.495 37.625 126.755 37.505C127.015 37.385 127.315 37.28 127.655 37.19C127.995 37.09 128.34 37.04 128.69 37.04C129.26 37.04 129.7 37.125 130.01 37.295C130.32 37.455 130.54 37.665 130.67 37.925C130.8 38.175 130.88 38.44 130.91 38.72C130.94 38.99 130.955 39.235 130.955 39.455V42.005C130.955 42.345 131 42.625 131.09 42.845C131.19 43.065 131.3 43.235 131.42 43.355C131.55 43.475 131.655 43.565 131.735 43.625L130.955 44.195ZM128.12 43.49C128.36 43.44 128.6 43.345 128.84 43.205C129.09 43.055 129.3 42.905 129.47 42.755C129.64 42.595 129.725 42.48 129.725 42.41V40.865C128.975 40.915 128.375 41.08 127.925 41.36C127.485 41.63 127.265 41.92 127.265 42.23C127.265 42.54 127.345 42.81 127.505 43.04C127.675 43.26 127.88 43.41 128.12 43.49ZM133.24 44V33.755H134.5V44H133.24Z" fill="white"/>
</svg>
