<svg width="512" height="512" viewBox="0 0 512 512" fill="none" xmlns="http://www.w3.org/2000/svg">
<path d="M256 250.8C241.494 250.802 227.314 246.502 215.252 238.445C203.19 230.387 193.788 218.934 188.236 205.533C182.683 192.132 181.229 177.386 184.058 163.158C186.887 148.931 193.871 135.862 204.127 125.604C214.384 115.347 227.452 108.361 241.678 105.53C255.905 102.699 270.652 104.151 284.054 109.702C297.455 115.253 308.91 124.653 316.969 136.714C325.028 148.775 329.33 162.954 329.33 177.46C329.311 196.904 321.58 215.546 307.832 229.295C294.085 243.045 275.444 250.779 256 250.8ZM256 125.27C245.675 125.268 235.581 128.328 226.995 134.063C218.41 139.798 211.718 147.951 207.765 157.489C203.813 167.028 202.779 177.525 204.793 187.651C206.806 197.778 211.778 207.08 219.079 214.381C226.38 221.682 235.682 226.654 245.809 228.668C255.935 230.681 266.432 229.647 275.971 225.695C285.509 221.743 293.662 215.05 299.397 206.465C305.132 197.879 308.192 187.785 308.19 177.46C308.174 163.623 302.67 150.358 292.886 140.574C283.102 130.79 269.837 125.286 256 125.27ZM373.07 407.87H138.93L128.36 397.3C128.36 380.538 131.661 363.94 138.076 348.454C144.491 332.968 153.892 318.898 165.745 307.045C177.597 295.193 191.668 285.791 207.154 279.376C222.64 272.962 239.238 269.66 256 269.66C272.762 269.66 289.36 272.962 304.846 279.376C320.332 285.791 334.403 295.193 346.255 307.045C358.108 318.898 367.509 332.968 373.924 348.454C380.338 363.94 383.64 380.538 383.64 397.3L373.07 407.87ZM150 386.73H362C359.415 360.411 347.131 335.995 327.539 318.232C307.946 300.469 282.446 290.631 256 290.631C229.554 290.631 204.054 300.469 184.461 318.232C164.869 335.995 152.585 360.411 150 386.73Z" fill="#231F20"/>
</svg>
