<svg width="43" height="25" viewBox="0 0 43 25" fill="none" xmlns="http://www.w3.org/2000/svg">
<path d="M7.74265 25V2.282C7.34798 2.18333 6.95332 2.10933 6.55865 2.06C6.16398 2.01067 5.71998 1.986 5.22665 1.986L0.231648 3.133L0.00964846 0.505998H19.0646L18.8796 3.133L13.8476 1.986C13.3543 1.986 12.9103 2.01067 12.5156 2.06C12.121 2.10933 11.7263 2.18333 11.3316 2.282V25H7.74265Z" fill="white"/>
<path d="M20.5504 25L29.8004 13.123L20.9944 0.505998H25.6194L31.7614 10.681L39.4574 0.505998H41.7144L32.5754 11.828L42.2324 25H37.6074L30.6514 14.196L22.8074 25H20.5504Z" fill="#8677FF"/>
</svg>
