<?xml version="1.0" encoding="iso-8859-1"?>
<!-- Uploaded to: SVG Repo, www.svgrepo.com, Generator: SVG Repo Mixer Tools -->
<svg fill="#000000" height="800px" width="800px" version="1.1" id="Capa_1" xmlns="http://www.w3.org/2000/svg" xmlns:xlink="http://www.w3.org/1999/xlink" 
	 viewBox="0 0 436.889 436.889" xml:space="preserve">
<path id="XMLID_269_" d="M283.74,264.897c4.108,2.798,5.171,8.396,2.374,12.505c-15.261,22.412-40.542,35.793-67.627,35.793
	c-27.084,0-52.364-13.381-67.626-35.793c-2.797-4.108-1.734-9.707,2.374-12.505s9.706-1.735,12.505,2.374
	c11.906,17.485,31.624,27.924,52.747,27.924c21.124,0,40.843-10.438,52.748-27.924C274.033,263.163,279.631,262.1,283.74,264.897z
	 M53.501,174.191c-4.836-1.156-9.689,1.829-10.844,6.664c-5.2,21.787-6.47,44.099-3.772,66.315c0.555,4.566,4.437,7.916,8.923,7.916
	c0.362,0,0.729-0.021,1.097-0.066c4.935-0.6,8.448-5.085,7.85-10.02c-2.439-20.089-1.291-40.265,3.411-59.966
	C61.319,180.2,58.335,175.344,53.501,174.191z M24.244,190.608c0.825-4.901-2.479-9.544-7.381-10.369
	c-4.907-0.826-9.544,2.479-10.369,7.381c-7.381,43.83-1.593,88.254,16.738,128.47c1.51,3.313,4.777,5.269,8.195,5.269
	c1.248,0,2.517-0.261,3.728-0.813c4.522-2.062,6.518-7.399,4.456-11.923C22.776,271.69,17.462,230.881,24.244,190.608z
	 M422.344,145.232c-1.773-4.642-6.973-6.966-11.62-5.193c-4.643,1.775-6.968,6.978-5.192,11.621
	c19.357,50.643,17.622,107.854-4.764,156.963c-2.062,4.523-0.066,9.861,4.457,11.923c1.21,0.552,2.479,0.813,3.727,0.813
	c3.418,0,6.686-1.957,8.195-5.27C441.518,262.622,443.413,200.347,422.344,145.232z M330.459,236.431
	c0,61.741-50.229,111.971-111.971,111.971c-61.74,0-111.97-50.229-111.97-111.971c0-35.679,16.777-67.517,42.853-88.035
	L9.974,163.559c-4.947,0.536-9.383-3.032-9.921-7.974c-0.537-4.941,3.032-9.384,7.974-9.921l20.778-2.26
	c-0.612-1.056-1.02-2.253-1.16-3.544c-0.537-4.941,3.032-9.384,7.974-9.921l52.329-5.692c4.958-0.546,9.383,3.034,9.921,7.974
	c0.141,1.292,0,2.549-0.371,3.712l241.731-26.295c-1.453-1.409-2.441-3.313-2.678-5.483c-0.537-4.941,3.032-9.383,7.974-9.921
	l52.328-5.693c4.942-0.532,9.383,3.032,9.921,7.974c0.236,2.171-0.32,4.244-1.438,5.934l16.116-1.753
	c4.946-0.545,9.383,3.032,9.921,7.974c0.537,4.941-3.032,9.384-7.974,9.921l-156.27,16.998
	C304.574,153.722,330.459,192.112,330.459,236.431z M312.459,236.431c0-51.815-42.155-93.971-93.971-93.971
	s-93.97,42.155-93.97,93.971s42.154,93.971,93.97,93.971S312.459,288.246,312.459,236.431z M397.722,180.856
	c-1.154-4.835-6.007-7.824-10.843-6.665c-4.835,1.153-7.819,6.008-6.665,10.843c4.703,19.708,5.851,39.883,3.411,59.967
	c-0.599,4.935,2.915,9.42,7.85,10.02c0.368,0.045,0.734,0.066,1.096,0.066c4.486,0,8.369-3.351,8.924-7.916
	C404.192,224.959,402.924,202.648,397.722,180.856z"/>
</svg>